<?xml version="1.0" encoding="utf-8" standalone="no"?>
<!DOCTYPE svg PUBLIC "-//W3C//DTD SVG 1.1//EN"
  "http://www.w3.org/Graphics/SVG/1.1/DTD/svg11.dtd">
<!-- Created with matplotlib (http://matplotlib.org/) -->
<svg height="576pt" version="1.1" viewBox="0 0 1296 576" width="1296pt" xmlns="http://www.w3.org/2000/svg" xmlns:xlink="http://www.w3.org/1999/xlink">
 <defs>
  <style type="text/css">
*{stroke-linecap:butt;stroke-linejoin:round;}
  </style>
 </defs>
 <g id="figure_1">
  <g id="patch_1">
   <path d="M 0 576 
L 1296 576 
L 1296 0 
L 0 0 
z
" style="fill:none;"/>
  </g>
  <g id="axes_1">
   <g id="patch_2">
    <path d="M 47.05 543.2 
L 1281.7 543.2 
L 1281.7 38.8 
L 47.05 38.8 
z
" style="fill:none;"/>
   </g>
   <g id="matplotlib.axis_1">
    <g id="xtick_1">
     <g id="line2d_1">
      <defs>
       <path d="M 0 0 
L 0 3.5 
" id="m2753710a0f" style="stroke:#000000;stroke-width:0.8;"/>
      </defs>
      <g>
       <use style="stroke:#000000;stroke-width:0.8;" x="165.215732" xlink:href="#m2753710a0f" y="543.2"/>
      </g>
     </g>
     <g id="text_1">
      <!-- Feb -->
      <defs>
       <path d="M 9.8125 72.90625 
L 51.703125 72.90625 
L 51.703125 64.59375 
L 19.671875 64.59375 
L 19.671875 43.109375 
L 48.578125 43.109375 
L 48.578125 34.8125 
L 19.671875 34.8125 
L 19.671875 0 
L 9.8125 0 
z
" id="DejaVuSans-46"/>
       <path d="M 56.203125 29.59375 
L 56.203125 25.203125 
L 14.890625 25.203125 
Q 15.484375 15.921875 20.484375 11.0625 
Q 25.484375 6.203125 34.421875 6.203125 
Q 39.59375 6.203125 44.453125 7.46875 
Q 49.3125 8.734375 54.109375 11.28125 
L 54.109375 2.78125 
Q 49.265625 0.734375 44.1875 -0.34375 
Q 39.109375 -1.421875 33.890625 -1.421875 
Q 20.796875 -1.421875 13.15625 6.1875 
Q 5.515625 13.8125 5.515625 26.8125 
Q 5.515625 40.234375 12.765625 48.109375 
Q 20.015625 56 32.328125 56 
Q 43.359375 56 49.78125 48.890625 
Q 56.203125 41.796875 56.203125 29.59375 
z
M 47.21875 32.234375 
Q 47.125 39.59375 43.09375 43.984375 
Q 39.0625 48.390625 32.421875 48.390625 
Q 24.90625 48.390625 20.390625 44.140625 
Q 15.875 39.890625 15.1875 32.171875 
z
" id="DejaVuSans-65"/>
       <path d="M 48.6875 27.296875 
Q 48.6875 37.203125 44.609375 42.84375 
Q 40.53125 48.484375 33.40625 48.484375 
Q 26.265625 48.484375 22.1875 42.84375 
Q 18.109375 37.203125 18.109375 27.296875 
Q 18.109375 17.390625 22.1875 11.75 
Q 26.265625 6.109375 33.40625 6.109375 
Q 40.53125 6.109375 44.609375 11.75 
Q 48.6875 17.390625 48.6875 27.296875 
z
M 18.109375 46.390625 
Q 20.953125 51.265625 25.265625 53.625 
Q 29.59375 56 35.59375 56 
Q 45.5625 56 51.78125 48.09375 
Q 58.015625 40.1875 58.015625 27.296875 
Q 58.015625 14.40625 51.78125 6.484375 
Q 45.5625 -1.421875 35.59375 -1.421875 
Q 29.59375 -1.421875 25.265625 0.953125 
Q 20.953125 3.328125 18.109375 8.203125 
L 18.109375 0 
L 9.078125 0 
L 9.078125 75.984375 
L 18.109375 75.984375 
z
" id="DejaVuSans-62"/>
      </defs>
      <g transform="translate(150.619482 562.3575)scale(0.16 -0.16)">
       <use xlink:href="#DejaVuSans-46"/>
       <use x="57.441406" xlink:href="#DejaVuSans-65"/>
       <use x="118.964844" xlink:href="#DejaVuSans-62"/>
      </g>
     </g>
    </g>
    <g id="xtick_2">
     <g id="line2d_2">
      <g>
       <use style="stroke:#000000;stroke-width:0.8;" x="476.743571" xlink:href="#m2753710a0f" y="543.2"/>
      </g>
     </g>
     <g id="text_2">
      <!-- Mar -->
      <defs>
       <path d="M 9.8125 72.90625 
L 24.515625 72.90625 
L 43.109375 23.296875 
L 61.8125 72.90625 
L 76.515625 72.90625 
L 76.515625 0 
L 66.890625 0 
L 66.890625 64.015625 
L 48.09375 14.015625 
L 38.1875 14.015625 
L 19.390625 64.015625 
L 19.390625 0 
L 9.8125 0 
z
" id="DejaVuSans-4d"/>
       <path d="M 34.28125 27.484375 
Q 23.390625 27.484375 19.1875 25 
Q 14.984375 22.515625 14.984375 16.5 
Q 14.984375 11.71875 18.140625 8.90625 
Q 21.296875 6.109375 26.703125 6.109375 
Q 34.1875 6.109375 38.703125 11.40625 
Q 43.21875 16.703125 43.21875 25.484375 
L 43.21875 27.484375 
z
M 52.203125 31.203125 
L 52.203125 0 
L 43.21875 0 
L 43.21875 8.296875 
Q 40.140625 3.328125 35.546875 0.953125 
Q 30.953125 -1.421875 24.3125 -1.421875 
Q 15.921875 -1.421875 10.953125 3.296875 
Q 6 8.015625 6 15.921875 
Q 6 25.140625 12.171875 29.828125 
Q 18.359375 34.515625 30.609375 34.515625 
L 43.21875 34.515625 
L 43.21875 35.40625 
Q 43.21875 41.609375 39.140625 45 
Q 35.0625 48.390625 27.6875 48.390625 
Q 23 48.390625 18.546875 47.265625 
Q 14.109375 46.140625 10.015625 43.890625 
L 10.015625 52.203125 
Q 14.9375 54.109375 19.578125 55.046875 
Q 24.21875 56 28.609375 56 
Q 40.484375 56 46.34375 49.84375 
Q 52.203125 43.703125 52.203125 31.203125 
z
" id="DejaVuSans-61"/>
       <path d="M 41.109375 46.296875 
Q 39.59375 47.171875 37.8125 47.578125 
Q 36.03125 48 33.890625 48 
Q 26.265625 48 22.1875 43.046875 
Q 18.109375 38.09375 18.109375 28.8125 
L 18.109375 0 
L 9.078125 0 
L 9.078125 54.6875 
L 18.109375 54.6875 
L 18.109375 46.1875 
Q 20.953125 51.171875 25.484375 53.578125 
Q 30.03125 56 36.53125 56 
Q 37.453125 56 38.578125 55.875 
Q 39.703125 55.765625 41.0625 55.515625 
z
" id="DejaVuSans-72"/>
      </defs>
      <g transform="translate(461.649821 562.3575)scale(0.16 -0.16)">
       <use xlink:href="#DejaVuSans-4d"/>
       <use x="86.279297" xlink:href="#DejaVuSans-61"/>
       <use x="147.558594" xlink:href="#DejaVuSans-72"/>
      </g>
     </g>
    </g>
    <g id="xtick_3">
     <g id="line2d_3">
      <g>
       <use style="stroke:#000000;stroke-width:0.8;" x="809.756088" xlink:href="#m2753710a0f" y="543.2"/>
      </g>
     </g>
     <g id="text_3">
      <!-- Apr -->
      <defs>
       <path d="M 34.1875 63.1875 
L 20.796875 26.90625 
L 47.609375 26.90625 
z
M 28.609375 72.90625 
L 39.796875 72.90625 
L 67.578125 0 
L 57.328125 0 
L 50.6875 18.703125 
L 17.828125 18.703125 
L 11.1875 0 
L 0.78125 0 
z
" id="DejaVuSans-41"/>
       <path d="M 18.109375 8.203125 
L 18.109375 -20.796875 
L 9.078125 -20.796875 
L 9.078125 54.6875 
L 18.109375 54.6875 
L 18.109375 46.390625 
Q 20.953125 51.265625 25.265625 53.625 
Q 29.59375 56 35.59375 56 
Q 45.5625 56 51.78125 48.09375 
Q 58.015625 40.1875 58.015625 27.296875 
Q 58.015625 14.40625 51.78125 6.484375 
Q 45.5625 -1.421875 35.59375 -1.421875 
Q 29.59375 -1.421875 25.265625 0.953125 
Q 20.953125 3.328125 18.109375 8.203125 
z
M 48.6875 27.296875 
Q 48.6875 37.203125 44.609375 42.84375 
Q 40.53125 48.484375 33.40625 48.484375 
Q 26.265625 48.484375 22.1875 42.84375 
Q 18.109375 37.203125 18.109375 27.296875 
Q 18.109375 17.390625 22.1875 11.75 
Q 26.265625 6.109375 33.40625 6.109375 
Q 40.53125 6.109375 44.609375 11.75 
Q 48.6875 17.390625 48.6875 27.296875 
z
" id="DejaVuSans-70"/>
      </defs>
      <g transform="translate(795.916088 562.3575)scale(0.16 -0.16)">
       <use xlink:href="#DejaVuSans-41"/>
       <use x="68.408203" xlink:href="#DejaVuSans-70"/>
       <use x="131.884766" xlink:href="#DejaVuSans-72"/>
      </g>
     </g>
    </g>
    <g id="xtick_4">
     <g id="line2d_4">
      <g>
       <use style="stroke:#000000;stroke-width:0.8;" x="1132.026266" xlink:href="#m2753710a0f" y="543.2"/>
      </g>
     </g>
     <g id="text_4">
      <!-- May -->
      <defs>
       <path d="M 32.171875 -5.078125 
Q 28.375 -14.84375 24.75 -17.8125 
Q 21.140625 -20.796875 15.09375 -20.796875 
L 7.90625 -20.796875 
L 7.90625 -13.28125 
L 13.1875 -13.28125 
Q 16.890625 -13.28125 18.9375 -11.515625 
Q 21 -9.765625 23.484375 -3.21875 
L 25.09375 0.875 
L 2.984375 54.6875 
L 12.5 54.6875 
L 29.59375 11.921875 
L 46.6875 54.6875 
L 56.203125 54.6875 
z
" id="DejaVuSans-79"/>
      </defs>
      <g transform="translate(1115.486266 562.3575)scale(0.16 -0.16)">
       <use xlink:href="#DejaVuSans-4d"/>
       <use x="86.279297" xlink:href="#DejaVuSans-61"/>
       <use x="147.558594" xlink:href="#DejaVuSans-79"/>
      </g>
     </g>
    </g>
   </g>
   <g id="matplotlib.axis_2">
    <g id="ytick_1">
     <g id="line2d_5">
      <defs>
       <path d="M 0 0 
L -3.5 0 
" id="m0fd1f171e0" style="stroke:#000000;stroke-width:0.8;"/>
      </defs>
      <g>
       <use style="stroke:#000000;stroke-width:0.8;" x="47.05" xlink:href="#m0fd1f171e0" y="459.134174"/>
      </g>
     </g>
     <g id="text_5">
      <!-- ☹ -->
      <defs>
       <path d="M 31.34375 49.859375 
Q 31.34375 52.734375 33.3125 54.703125 
Q 35.296875 56.6875 38.1875 56.6875 
Q 41.015625 56.6875 43.015625 54.703125 
Q 45.015625 52.734375 45.015625 49.84375 
Q 45.015625 46.96875 43.015625 44.96875 
Q 41.015625 42.96875 38.1875 42.96875 
Q 35.296875 42.96875 33.3125 44.984375 
Q 31.34375 47.015625 31.34375 49.859375 
z
M 59.578125 49.859375 
Q 59.578125 52.734375 61.578125 54.703125 
Q 63.578125 56.6875 66.40625 56.6875 
Q 69.234375 56.6875 71.265625 54.703125 
Q 73.296875 52.734375 73.296875 49.859375 
Q 73.296875 47.015625 71.265625 44.984375 
Q 69.234375 42.96875 66.40625 42.96875 
Q 63.53125 42.96875 61.546875 44.984375 
Q 59.578125 47.015625 59.578125 49.859375 
z
M 8.296875 36.421875 
Q 8.296875 54.640625 21.140625 67.5 
Q 33.984375 80.375 52.15625 80.375 
Q 70.359375 80.375 83.15625 67.5 
Q 95.953125 54.640625 95.953125 36.421875 
Q 95.953125 18.265625 83.15625 5.46875 
Q 70.359375 -7.328125 52.15625 -7.328125 
Q 33.984375 -7.328125 21.140625 5.46875 
Q 8.296875 18.265625 8.296875 36.421875 
z
M 14.890625 36.421875 
Q 14.890625 21 25.796875 10.125 
Q 36.71875 -0.734375 52.15625 -0.734375 
Q 67.625 -0.734375 78.484375 10.125 
Q 89.359375 21 89.359375 36.421875 
Q 89.359375 51.90625 78.484375 62.84375 
Q 67.625 73.78125 52.15625 73.78125 
Q 36.71875 73.78125 25.796875 62.84375 
Q 14.890625 51.90625 14.890625 36.421875 
z
M 26.421875 16.21875 
Q 28.171875 18.953125 30.671875 21.4375 
Q 39.546875 30.28125 52.140625 30.28125 
Q 64.75 30.28125 73.640625 21.4375 
Q 76.078125 18.953125 77.875 16.21875 
L 72.265625 12.703125 
Q 70.84375 14.84375 68.953125 16.75 
Q 62.015625 23.6875 52.140625 23.6875 
Q 42.28125 23.6875 35.359375 16.796875 
Q 33.40625 14.84375 32.03125 12.75 
z
" id="DejaVuSans-2639"/>
      </defs>
      <g transform="translate(10.86 469.771987)scale(0.28 -0.28)">
       <use xlink:href="#DejaVuSans-2639"/>
      </g>
     </g>
    </g>
    <g id="ytick_2">
     <g id="line2d_6">
      <g>
       <use style="stroke:#000000;stroke-width:0.8;" x="47.05" xlink:href="#m0fd1f171e0" y="122.865826"/>
      </g>
     </g>
     <g id="text_6">
      <!-- ☺ -->
      <defs>
       <path d="M 31.34375 49.859375 
Q 31.34375 52.734375 33.3125 54.703125 
Q 35.296875 56.6875 38.1875 56.6875 
Q 41.015625 56.6875 43.015625 54.703125 
Q 45.015625 52.734375 45.015625 49.84375 
Q 45.015625 46.96875 43.015625 44.96875 
Q 41.015625 42.96875 38.1875 42.96875 
Q 35.296875 42.96875 33.3125 44.984375 
Q 31.34375 47.015625 31.34375 49.859375 
z
M 59.578125 49.859375 
Q 59.578125 52.734375 61.578125 54.703125 
Q 63.578125 56.6875 66.40625 56.6875 
Q 69.234375 56.6875 71.265625 54.703125 
Q 73.296875 52.734375 73.296875 49.859375 
Q 73.296875 47.015625 71.265625 44.984375 
Q 69.234375 42.96875 66.40625 42.96875 
Q 63.53125 42.96875 61.546875 44.984375 
Q 59.578125 47.015625 59.578125 49.859375 
z
M 8.296875 36.421875 
Q 8.296875 54.640625 21.140625 67.5 
Q 33.984375 80.375 52.15625 80.375 
Q 70.359375 80.375 83.15625 67.5 
Q 95.953125 54.640625 95.953125 36.421875 
Q 95.953125 18.265625 83.15625 5.46875 
Q 70.359375 -7.328125 52.15625 -7.328125 
Q 33.984375 -7.328125 21.140625 5.46875 
Q 8.296875 18.265625 8.296875 36.421875 
z
M 14.890625 36.421875 
Q 14.890625 21 25.796875 10.125 
Q 36.71875 -0.734375 52.15625 -0.734375 
Q 67.625 -0.734375 78.484375 10.125 
Q 89.359375 21 89.359375 36.421875 
Q 89.359375 51.90625 78.484375 62.84375 
Q 67.625 73.78125 52.15625 73.78125 
Q 36.71875 73.78125 25.796875 62.84375 
Q 14.890625 51.90625 14.890625 36.421875 
z
M 26.421875 22.703125 
L 32.03125 26.171875 
Q 33.40625 24.078125 35.359375 22.171875 
Q 42.28125 15.234375 52.140625 15.234375 
Q 62.015625 15.234375 68.953125 22.171875 
Q 70.84375 24.078125 72.265625 26.21875 
L 77.875 22.703125 
Q 76.078125 19.96875 73.640625 17.484375 
Q 64.75 8.640625 52.140625 8.640625 
Q 39.546875 8.640625 30.671875 17.484375 
Q 28.171875 19.96875 26.421875 22.703125 
z
" id="DejaVuSans-263a"/>
      </defs>
      <g transform="translate(10.86 133.503638)scale(0.28 -0.28)">
       <use xlink:href="#DejaVuSans-263a"/>
      </g>
     </g>
    </g>
   </g>
   <g id="LineCollection_1">
    <path clip-path="url(#pace8e50c63)" d="M 629.032144 190.12 
L 629.032144 543.2 
" style="fill:none;stroke:#000000;stroke-dasharray:1.5,2.475;stroke-dashoffset:0;stroke-width:1.5;"/>
   </g>
   <g id="LineCollection_2">
    <path clip-path="url(#pace8e50c63)" d="M 811.651912 190.12 
L 811.651912 543.2 
" style="fill:none;stroke:#000000;stroke-dasharray:1.5,2.475;stroke-dashoffset:0;stroke-width:1.5;"/>
   </g>
   <g id="LineCollection_3">
    <path clip-path="url(#pace8e50c63)" d="M 1112.437411 190.12 
L 1112.437411 543.2 
" style="fill:none;stroke:#000000;stroke-dasharray:1.5,2.475;stroke-dashoffset:0;stroke-width:1.5;"/>
   </g>
   <g id="LineCollection_4">
    <path clip-path="url(#pace8e50c63)" d="M 972.787001 190.12 
L 972.787001 543.2 
" style="fill:none;stroke:#000000;stroke-dasharray:1.5,2.475;stroke-dashoffset:0;stroke-width:1.5;"/>
   </g>
   <g id="LineCollection_5">
    <path clip-path="url(#pace8e50c63)" d="M 467.897055 391.88 
L 467.897055 543.2 
" style="fill:none;stroke:#000000;stroke-dasharray:1.5,2.475;stroke-dashoffset:0;stroke-width:1.5;"/>
   </g>
   <g id="LineCollection_6">
    <path clip-path="url(#pace8e50c63)" d="M 618.289805 366.66 
L 618.289805 543.2 
" style="fill:none;stroke:#000000;stroke-dasharray:1.5,2.475;stroke-dashoffset:0;stroke-width:1.5;"/>
   </g>
   <g id="LineCollection_7">
    <path clip-path="url(#pace8e50c63)" d="M 672.001501 417.1 
L 672.001501 543.2 
" style="fill:none;stroke:#000000;stroke-dasharray:1.5,2.475;stroke-dashoffset:0;stroke-width:1.5;"/>
   </g>
   <g id="line2d_7">
    <path clip-path="url(#pace8e50c63)" d="M 47.05 291 
L 1281.7 291 
" style="fill:none;stroke:#808080;stroke-linecap:square;stroke-width:1.5;"/>
   </g>
   <g id="line2d_8">
    <path clip-path="url(#pace8e50c63)" d="M 639.774484 192.766839 
L 650.516823 9.788804 
L 661.259162 78.911239 
L 672.001501 72.124957 
L 682.743841 52.139368 
L 693.48618 195.704218 
L 704.228519 447.252912 
L 714.970858 434.221017 
L 725.713198 418.842702 
L 736.455537 388.748937 
L 747.197876 392.789181 
L 757.940216 336.262334 
L 790.167233 261.752366 
L 811.651912 273.767174 
L 822.394251 327.099908 
L 865.363608 345.924116 
L 886.848287 471.157809 
L 897.590626 483.481877 
L 908.332965 484.329269 
L 919.075305 451.545791 
L 929.817644 459.565751 
L 962.044662 360.22228 
L 972.787001 312.028436 
L 983.52934 324.603128 
L 994.271679 341.227522 
L 1005.014019 323.690479 
L 1015.756358 210.270465 
L 1026.498697 217.814397 
L 1047.983376 121.457604 
L 1058.725715 105.332567 
L 1080.210393 109.117728 
L 1090.952733 159.544578 
L 1101.695072 233.653548 
L 1112.437411 323.257686 
L 1123.179751 331.814832 
L 1155.406768 355.319287 
L 1166.149108 334.59277 
L 1176.891447 302.507886 
L 1187.633786 275.862536 
" style="fill:none;stroke:#1f77b4;stroke-linecap:square;stroke-width:3;"/>
   </g>
   <g id="line2d_9">
    <path clip-path="url(#pace8e50c63)" d="M 510.866412 319.985346 
L 521.608752 371.114483 
L 532.351091 318.81829 
L 543.09343 346.462563 
L 575.320448 307.701945 
L 586.062787 272.675148 
L 596.805127 211.989775 
L 607.547466 237.456931 
L 618.289805 201.564773 
L 629.032144 196.281003 
L 639.774484 176.169702 
L 650.516823 205.472063 
L 661.259162 240.318222 
L 672.001501 263.033561 
L 682.743841 264.407084 
L 693.48618 334.917876 
L 704.228519 319.458062 
L 714.970858 292.353722 
L 725.713198 269.775833 
L 736.455537 284.636783 
L 747.197876 277.519542 
L 757.940216 292.087875 
L 768.682555 270.345645 
L 779.424894 283.516317 
L 790.167233 277.158932 
L 800.909573 273.124362 
L 811.651912 265.320558 
L 822.394251 274.764345 
L 833.13659 290.538982 
L 843.87893 288.05374 
L 854.621269 298.164753 
L 865.363608 295.760905 
L 876.105947 316.602398 
L 886.848287 285.895787 
L 897.590626 281.222836 
L 908.332965 280.32201 
L 919.075305 276.169221 
L 929.817644 284.55766 
L 940.559983 321.77576 
L 951.302322 298.387152 
L 962.044662 336.027529 
L 972.787001 352.501359 
L 983.52934 305.299025 
L 994.271679 289.808586 
L 1005.014019 348.785136 
L 1015.756358 308.78527 
L 1026.498697 350.426887 
L 1037.241036 367.261868 
L 1047.983376 351.143316 
L 1058.725715 321.393623 
L 1069.468054 318.161365 
L 1080.210393 256.40932 
L 1090.952733 255.365086 
L 1101.695072 267.614764 
L 1112.437411 260.445371 
L 1123.179751 242.626747 
L 1133.92209 289.013137 
L 1144.664429 294.603006 
L 1155.406768 282.896529 
L 1166.149108 298.126565 
L 1176.891447 326.45783 
L 1187.633786 286.542524 
L 1198.376125 282.695862 
L 1209.118465 298.421096 
L 1219.860804 310.544378 
L 1230.603143 302.081829 
L 1241.345482 400.290517 
L 1252.087822 420.708284 
" style="fill:none;stroke:#ff7f0e;stroke-linecap:square;stroke-width:3;"/>
   </g>
   <g id="text_7">
    <!-- Houston -->
    <defs>
     <path d="M 9.8125 72.90625 
L 19.671875 72.90625 
L 19.671875 43.015625 
L 55.515625 43.015625 
L 55.515625 72.90625 
L 65.375 72.90625 
L 65.375 0 
L 55.515625 0 
L 55.515625 34.71875 
L 19.671875 34.71875 
L 19.671875 0 
L 9.8125 0 
z
" id="DejaVuSans-48"/>
     <path d="M 30.609375 48.390625 
Q 23.390625 48.390625 19.1875 42.75 
Q 14.984375 37.109375 14.984375 27.296875 
Q 14.984375 17.484375 19.15625 11.84375 
Q 23.34375 6.203125 30.609375 6.203125 
Q 37.796875 6.203125 41.984375 11.859375 
Q 46.1875 17.53125 46.1875 27.296875 
Q 46.1875 37.015625 41.984375 42.703125 
Q 37.796875 48.390625 30.609375 48.390625 
z
M 30.609375 56 
Q 42.328125 56 49.015625 48.375 
Q 55.71875 40.765625 55.71875 27.296875 
Q 55.71875 13.875 49.015625 6.21875 
Q 42.328125 -1.421875 30.609375 -1.421875 
Q 18.84375 -1.421875 12.171875 6.21875 
Q 5.515625 13.875 5.515625 27.296875 
Q 5.515625 40.765625 12.171875 48.375 
Q 18.84375 56 30.609375 56 
z
" id="DejaVuSans-6f"/>
     <path d="M 8.5 21.578125 
L 8.5 54.6875 
L 17.484375 54.6875 
L 17.484375 21.921875 
Q 17.484375 14.15625 20.5 10.265625 
Q 23.53125 6.390625 29.59375 6.390625 
Q 36.859375 6.390625 41.078125 11.03125 
Q 45.3125 15.671875 45.3125 23.6875 
L 45.3125 54.6875 
L 54.296875 54.6875 
L 54.296875 0 
L 45.3125 0 
L 45.3125 8.40625 
Q 42.046875 3.421875 37.71875 1 
Q 33.40625 -1.421875 27.6875 -1.421875 
Q 18.265625 -1.421875 13.375 4.4375 
Q 8.5 10.296875 8.5 21.578125 
z
M 31.109375 56 
z
" id="DejaVuSans-75"/>
     <path d="M 44.28125 53.078125 
L 44.28125 44.578125 
Q 40.484375 46.53125 36.375 47.5 
Q 32.28125 48.484375 27.875 48.484375 
Q 21.1875 48.484375 17.84375 46.4375 
Q 14.5 44.390625 14.5 40.28125 
Q 14.5 37.15625 16.890625 35.375 
Q 19.28125 33.59375 26.515625 31.984375 
L 29.59375 31.296875 
Q 39.15625 29.25 43.1875 25.515625 
Q 47.21875 21.78125 47.21875 15.09375 
Q 47.21875 7.46875 41.1875 3.015625 
Q 35.15625 -1.421875 24.609375 -1.421875 
Q 20.21875 -1.421875 15.453125 -0.5625 
Q 10.6875 0.296875 5.421875 2 
L 5.421875 11.28125 
Q 10.40625 8.6875 15.234375 7.390625 
Q 20.0625 6.109375 24.8125 6.109375 
Q 31.15625 6.109375 34.5625 8.28125 
Q 37.984375 10.453125 37.984375 14.40625 
Q 37.984375 18.0625 35.515625 20.015625 
Q 33.0625 21.96875 24.703125 23.78125 
L 21.578125 24.515625 
Q 13.234375 26.265625 9.515625 29.90625 
Q 5.8125 33.546875 5.8125 39.890625 
Q 5.8125 47.609375 11.28125 51.796875 
Q 16.75 56 26.8125 56 
Q 31.78125 56 36.171875 55.265625 
Q 40.578125 54.546875 44.28125 53.078125 
z
" id="DejaVuSans-73"/>
     <path d="M 18.3125 70.21875 
L 18.3125 54.6875 
L 36.8125 54.6875 
L 36.8125 47.703125 
L 18.3125 47.703125 
L 18.3125 18.015625 
Q 18.3125 11.328125 20.140625 9.421875 
Q 21.96875 7.515625 27.59375 7.515625 
L 36.8125 7.515625 
L 36.8125 0 
L 27.59375 0 
Q 17.1875 0 13.234375 3.875 
Q 9.28125 7.765625 9.28125 18.015625 
L 9.28125 47.703125 
L 2.6875 47.703125 
L 2.6875 54.6875 
L 9.28125 54.6875 
L 9.28125 70.21875 
z
" id="DejaVuSans-74"/>
     <path d="M 54.890625 33.015625 
L 54.890625 0 
L 45.90625 0 
L 45.90625 32.71875 
Q 45.90625 40.484375 42.875 44.328125 
Q 39.84375 48.1875 33.796875 48.1875 
Q 26.515625 48.1875 22.3125 43.546875 
Q 18.109375 38.921875 18.109375 30.90625 
L 18.109375 0 
L 9.078125 0 
L 9.078125 54.6875 
L 18.109375 54.6875 
L 18.109375 46.1875 
Q 21.34375 51.125 25.703125 53.5625 
Q 30.078125 56 35.796875 56 
Q 45.21875 56 50.046875 50.171875 
Q 54.890625 44.34375 54.890625 33.015625 
z
" id="DejaVuSans-6e"/>
    </defs>
    <g transform="translate(598.211984 180.156839)scale(0.2 -0.2)">
     <use xlink:href="#DejaVuSans-48"/>
     <use x="75.195312" xlink:href="#DejaVuSans-6f"/>
     <use x="136.376953" xlink:href="#DejaVuSans-75"/>
     <use x="199.755859" xlink:href="#DejaVuSans-73"/>
     <use x="251.855469" xlink:href="#DejaVuSans-74"/>
     <use x="291.064453" xlink:href="#DejaVuSans-6f"/>
     <use x="352.246094" xlink:href="#DejaVuSans-6e"/>
    </g>
   </g>
   <g id="text_8">
    <!-- New York -->
    <defs>
     <path d="M 9.8125 72.90625 
L 23.09375 72.90625 
L 55.421875 11.921875 
L 55.421875 72.90625 
L 64.984375 72.90625 
L 64.984375 0 
L 51.703125 0 
L 19.390625 60.984375 
L 19.390625 0 
L 9.8125 0 
z
" id="DejaVuSans-4e"/>
     <path d="M 4.203125 54.6875 
L 13.1875 54.6875 
L 24.421875 12.015625 
L 35.59375 54.6875 
L 46.1875 54.6875 
L 57.421875 12.015625 
L 68.609375 54.6875 
L 77.59375 54.6875 
L 63.28125 0 
L 52.6875 0 
L 40.921875 44.828125 
L 29.109375 0 
L 18.5 0 
z
" id="DejaVuSans-77"/>
     <path id="DejaVuSans-20"/>
     <path d="M -0.203125 72.90625 
L 10.40625 72.90625 
L 30.609375 42.921875 
L 50.6875 72.90625 
L 61.28125 72.90625 
L 35.5 34.71875 
L 35.5 0 
L 25.59375 0 
L 25.59375 34.71875 
z
" id="DejaVuSans-59"/>
     <path d="M 9.078125 75.984375 
L 18.109375 75.984375 
L 18.109375 31.109375 
L 44.921875 54.6875 
L 56.390625 54.6875 
L 27.390625 29.109375 
L 57.625 0 
L 45.90625 0 
L 18.109375 26.703125 
L 18.109375 0 
L 9.078125 0 
z
" id="DejaVuSans-6b"/>
    </defs>
    <g transform="translate(463.767975 307.375346)scale(0.2 -0.2)">
     <use xlink:href="#DejaVuSans-4e"/>
     <use x="74.804688" xlink:href="#DejaVuSans-65"/>
     <use x="136.328125" xlink:href="#DejaVuSans-77"/>
     <use x="218.115234" xlink:href="#DejaVuSans-20"/>
     <use x="249.902344" xlink:href="#DejaVuSans-59"/>
     <use x="310.783203" xlink:href="#DejaVuSans-6f"/>
     <use x="371.964844" xlink:href="#DejaVuSans-72"/>
     <use x="413.078125" xlink:href="#DejaVuSans-6b"/>
    </g>
   </g>
   <g id="text_9">
    <!-- First reported -->
    <defs>
     <path d="M 9.421875 54.6875 
L 18.40625 54.6875 
L 18.40625 0 
L 9.421875 0 
z
M 9.421875 75.984375 
L 18.40625 75.984375 
L 18.40625 64.59375 
L 9.421875 64.59375 
z
" id="DejaVuSans-69"/>
     <path d="M 45.40625 46.390625 
L 45.40625 75.984375 
L 54.390625 75.984375 
L 54.390625 0 
L 45.40625 0 
L 45.40625 8.203125 
Q 42.578125 3.328125 38.25 0.953125 
Q 33.9375 -1.421875 27.875 -1.421875 
Q 17.96875 -1.421875 11.734375 6.484375 
Q 5.515625 14.40625 5.515625 27.296875 
Q 5.515625 40.1875 11.734375 48.09375 
Q 17.96875 56 27.875 56 
Q 33.9375 56 38.25 53.625 
Q 42.578125 51.265625 45.40625 46.390625 
z
M 14.796875 27.296875 
Q 14.796875 17.390625 18.875 11.75 
Q 22.953125 6.109375 30.078125 6.109375 
Q 37.203125 6.109375 41.296875 11.75 
Q 45.40625 17.390625 45.40625 27.296875 
Q 45.40625 37.203125 41.296875 42.84375 
Q 37.203125 48.484375 30.078125 48.484375 
Q 22.953125 48.484375 18.875 42.84375 
Q 14.796875 37.203125 14.796875 27.296875 
z
" id="DejaVuSans-64"/>
    </defs>
    <g style="fill:#1f77b4;" transform="translate(629.032144 176.682625)scale(0.12 -0.12)">
     <use xlink:href="#DejaVuSans-46"/>
     <use x="57.410156" xlink:href="#DejaVuSans-69"/>
     <use x="85.193359" xlink:href="#DejaVuSans-72"/>
     <use x="126.306641" xlink:href="#DejaVuSans-73"/>
     <use x="178.40625" xlink:href="#DejaVuSans-74"/>
     <use x="217.615234" xlink:href="#DejaVuSans-20"/>
     <use x="249.402344" xlink:href="#DejaVuSans-72"/>
     <use x="290.484375" xlink:href="#DejaVuSans-65"/>
     <use x="352.007812" xlink:href="#DejaVuSans-70"/>
     <use x="415.484375" xlink:href="#DejaVuSans-6f"/>
     <use x="476.666016" xlink:href="#DejaVuSans-72"/>
     <use x="517.779297" xlink:href="#DejaVuSans-74"/>
     <use x="556.988281" xlink:href="#DejaVuSans-65"/>
     <use x="618.511719" xlink:href="#DejaVuSans-64"/>
    </g>
    <!-- death in Texas -->
    <defs>
     <path d="M 54.890625 33.015625 
L 54.890625 0 
L 45.90625 0 
L 45.90625 32.71875 
Q 45.90625 40.484375 42.875 44.328125 
Q 39.84375 48.1875 33.796875 48.1875 
Q 26.515625 48.1875 22.3125 43.546875 
Q 18.109375 38.921875 18.109375 30.90625 
L 18.109375 0 
L 9.078125 0 
L 9.078125 75.984375 
L 18.109375 75.984375 
L 18.109375 46.1875 
Q 21.34375 51.125 25.703125 53.5625 
Q 30.078125 56 35.796875 56 
Q 45.21875 56 50.046875 50.171875 
Q 54.890625 44.34375 54.890625 33.015625 
z
" id="DejaVuSans-68"/>
     <path d="M -0.296875 72.90625 
L 61.375 72.90625 
L 61.375 64.59375 
L 35.5 64.59375 
L 35.5 0 
L 25.59375 0 
L 25.59375 64.59375 
L -0.296875 64.59375 
z
" id="DejaVuSans-54"/>
     <path d="M 54.890625 54.6875 
L 35.109375 28.078125 
L 55.90625 0 
L 45.3125 0 
L 29.390625 21.484375 
L 13.484375 0 
L 2.875 0 
L 24.125 28.609375 
L 4.6875 54.6875 
L 15.28125 54.6875 
L 29.78125 35.203125 
L 44.28125 54.6875 
z
" id="DejaVuSans-78"/>
    </defs>
    <g style="fill:#1f77b4;" transform="translate(629.032144 190.12)scale(0.12 -0.12)">
     <use xlink:href="#DejaVuSans-64"/>
     <use x="63.476562" xlink:href="#DejaVuSans-65"/>
     <use x="125" xlink:href="#DejaVuSans-61"/>
     <use x="186.279297" xlink:href="#DejaVuSans-74"/>
     <use x="225.488281" xlink:href="#DejaVuSans-68"/>
     <use x="288.867188" xlink:href="#DejaVuSans-20"/>
     <use x="320.654297" xlink:href="#DejaVuSans-69"/>
     <use x="348.4375" xlink:href="#DejaVuSans-6e"/>
     <use x="411.816406" xlink:href="#DejaVuSans-20"/>
     <use x="443.603516" xlink:href="#DejaVuSans-54"/>
     <use x="504.421875" xlink:href="#DejaVuSans-65"/>
     <use x="565.929688" xlink:href="#DejaVuSans-78"/>
     <use x="625.109375" xlink:href="#DejaVuSans-61"/>
     <use x="686.388672" xlink:href="#DejaVuSans-73"/>
    </g>
   </g>
   <g id="text_10">
    <!-- Texas stay-at-home -->
    <defs>
     <path d="M 4.890625 31.390625 
L 31.203125 31.390625 
L 31.203125 23.390625 
L 4.890625 23.390625 
z
" id="DejaVuSans-2d"/>
     <path d="M 52 44.1875 
Q 55.375 50.25 60.0625 53.125 
Q 64.75 56 71.09375 56 
Q 79.640625 56 84.28125 50.015625 
Q 88.921875 44.046875 88.921875 33.015625 
L 88.921875 0 
L 79.890625 0 
L 79.890625 32.71875 
Q 79.890625 40.578125 77.09375 44.375 
Q 74.3125 48.1875 68.609375 48.1875 
Q 61.625 48.1875 57.5625 43.546875 
Q 53.515625 38.921875 53.515625 30.90625 
L 53.515625 0 
L 44.484375 0 
L 44.484375 32.71875 
Q 44.484375 40.625 41.703125 44.40625 
Q 38.921875 48.1875 33.109375 48.1875 
Q 26.21875 48.1875 22.15625 43.53125 
Q 18.109375 38.875 18.109375 30.90625 
L 18.109375 0 
L 9.078125 0 
L 9.078125 54.6875 
L 18.109375 54.6875 
L 18.109375 46.1875 
Q 21.1875 51.21875 25.484375 53.609375 
Q 29.78125 56 35.6875 56 
Q 41.65625 56 45.828125 52.96875 
Q 50 49.953125 52 44.1875 
z
" id="DejaVuSans-6d"/>
    </defs>
    <g style="fill:#1f77b4;" transform="translate(811.651912 176.682625)scale(0.12 -0.12)">
     <use xlink:href="#DejaVuSans-54"/>
     <use x="60.818359" xlink:href="#DejaVuSans-65"/>
     <use x="122.326172" xlink:href="#DejaVuSans-78"/>
     <use x="181.505859" xlink:href="#DejaVuSans-61"/>
     <use x="242.785156" xlink:href="#DejaVuSans-73"/>
     <use x="294.884766" xlink:href="#DejaVuSans-20"/>
     <use x="326.671875" xlink:href="#DejaVuSans-73"/>
     <use x="378.771484" xlink:href="#DejaVuSans-74"/>
     <use x="417.980469" xlink:href="#DejaVuSans-61"/>
     <use x="479.259766" xlink:href="#DejaVuSans-79"/>
     <use x="538.423828" xlink:href="#DejaVuSans-2d"/>
     <use x="574.507812" xlink:href="#DejaVuSans-61"/>
     <use x="635.787109" xlink:href="#DejaVuSans-74"/>
     <use x="674.996094" xlink:href="#DejaVuSans-2d"/>
     <use x="711.080078" xlink:href="#DejaVuSans-68"/>
     <use x="774.458984" xlink:href="#DejaVuSans-6f"/>
     <use x="835.640625" xlink:href="#DejaVuSans-6d"/>
     <use x="933.052734" xlink:href="#DejaVuSans-65"/>
    </g>
    <!-- order begins -->
    <defs>
     <path d="M 45.40625 27.984375 
Q 45.40625 37.75 41.375 43.109375 
Q 37.359375 48.484375 30.078125 48.484375 
Q 22.859375 48.484375 18.828125 43.109375 
Q 14.796875 37.75 14.796875 27.984375 
Q 14.796875 18.265625 18.828125 12.890625 
Q 22.859375 7.515625 30.078125 7.515625 
Q 37.359375 7.515625 41.375 12.890625 
Q 45.40625 18.265625 45.40625 27.984375 
z
M 54.390625 6.78125 
Q 54.390625 -7.171875 48.1875 -13.984375 
Q 42 -20.796875 29.203125 -20.796875 
Q 24.46875 -20.796875 20.265625 -20.09375 
Q 16.0625 -19.390625 12.109375 -17.921875 
L 12.109375 -9.1875 
Q 16.0625 -11.328125 19.921875 -12.34375 
Q 23.78125 -13.375 27.78125 -13.375 
Q 36.625 -13.375 41.015625 -8.765625 
Q 45.40625 -4.15625 45.40625 5.171875 
L 45.40625 9.625 
Q 42.625 4.78125 38.28125 2.390625 
Q 33.9375 0 27.875 0 
Q 17.828125 0 11.671875 7.65625 
Q 5.515625 15.328125 5.515625 27.984375 
Q 5.515625 40.671875 11.671875 48.328125 
Q 17.828125 56 27.875 56 
Q 33.9375 56 38.28125 53.609375 
Q 42.625 51.21875 45.40625 46.390625 
L 45.40625 54.6875 
L 54.390625 54.6875 
z
" id="DejaVuSans-67"/>
    </defs>
    <g style="fill:#1f77b4;" transform="translate(811.651912 190.12)scale(0.12 -0.12)">
     <use xlink:href="#DejaVuSans-6f"/>
     <use x="61.181641" xlink:href="#DejaVuSans-72"/>
     <use x="102.279297" xlink:href="#DejaVuSans-64"/>
     <use x="165.755859" xlink:href="#DejaVuSans-65"/>
     <use x="227.279297" xlink:href="#DejaVuSans-72"/>
     <use x="268.392578" xlink:href="#DejaVuSans-20"/>
     <use x="300.179688" xlink:href="#DejaVuSans-62"/>
     <use x="363.65625" xlink:href="#DejaVuSans-65"/>
     <use x="425.179688" xlink:href="#DejaVuSans-67"/>
     <use x="488.65625" xlink:href="#DejaVuSans-69"/>
     <use x="516.439453" xlink:href="#DejaVuSans-6e"/>
     <use x="579.818359" xlink:href="#DejaVuSans-73"/>
    </g>
   </g>
   <g id="text_11">
    <!-- Texas stay-at-home -->
    <g style="fill:#1f77b4;" transform="translate(1112.437411 176.682625)scale(0.12 -0.12)">
     <use xlink:href="#DejaVuSans-54"/>
     <use x="60.818359" xlink:href="#DejaVuSans-65"/>
     <use x="122.326172" xlink:href="#DejaVuSans-78"/>
     <use x="181.505859" xlink:href="#DejaVuSans-61"/>
     <use x="242.785156" xlink:href="#DejaVuSans-73"/>
     <use x="294.884766" xlink:href="#DejaVuSans-20"/>
     <use x="326.671875" xlink:href="#DejaVuSans-73"/>
     <use x="378.771484" xlink:href="#DejaVuSans-74"/>
     <use x="417.980469" xlink:href="#DejaVuSans-61"/>
     <use x="479.259766" xlink:href="#DejaVuSans-79"/>
     <use x="538.423828" xlink:href="#DejaVuSans-2d"/>
     <use x="574.507812" xlink:href="#DejaVuSans-61"/>
     <use x="635.787109" xlink:href="#DejaVuSans-74"/>
     <use x="674.996094" xlink:href="#DejaVuSans-2d"/>
     <use x="711.080078" xlink:href="#DejaVuSans-68"/>
     <use x="774.458984" xlink:href="#DejaVuSans-6f"/>
     <use x="835.640625" xlink:href="#DejaVuSans-6d"/>
     <use x="933.052734" xlink:href="#DejaVuSans-65"/>
    </g>
    <!-- order ends -->
    <g style="fill:#1f77b4;" transform="translate(1112.437411 190.12)scale(0.12 -0.12)">
     <use xlink:href="#DejaVuSans-6f"/>
     <use x="61.181641" xlink:href="#DejaVuSans-72"/>
     <use x="102.279297" xlink:href="#DejaVuSans-64"/>
     <use x="165.755859" xlink:href="#DejaVuSans-65"/>
     <use x="227.279297" xlink:href="#DejaVuSans-72"/>
     <use x="268.392578" xlink:href="#DejaVuSans-20"/>
     <use x="300.179688" xlink:href="#DejaVuSans-65"/>
     <use x="361.703125" xlink:href="#DejaVuSans-6e"/>
     <use x="425.082031" xlink:href="#DejaVuSans-64"/>
     <use x="488.558594" xlink:href="#DejaVuSans-73"/>
    </g>
   </g>
   <g id="text_12">
    <!-- Abbott announces -->
    <defs>
     <path d="M 48.78125 52.59375 
L 48.78125 44.1875 
Q 44.96875 46.296875 41.140625 47.34375 
Q 37.3125 48.390625 33.40625 48.390625 
Q 24.65625 48.390625 19.8125 42.84375 
Q 14.984375 37.3125 14.984375 27.296875 
Q 14.984375 17.28125 19.8125 11.734375 
Q 24.65625 6.203125 33.40625 6.203125 
Q 37.3125 6.203125 41.140625 7.25 
Q 44.96875 8.296875 48.78125 10.40625 
L 48.78125 2.09375 
Q 45.015625 0.34375 40.984375 -0.53125 
Q 36.96875 -1.421875 32.421875 -1.421875 
Q 20.0625 -1.421875 12.78125 6.34375 
Q 5.515625 14.109375 5.515625 27.296875 
Q 5.515625 40.671875 12.859375 48.328125 
Q 20.21875 56 33.015625 56 
Q 37.15625 56 41.109375 55.140625 
Q 45.0625 54.296875 48.78125 52.59375 
z
" id="DejaVuSans-63"/>
    </defs>
    <g style="fill:#1f77b4;" transform="translate(972.787001 176.682625)scale(0.12 -0.12)">
     <use xlink:href="#DejaVuSans-41"/>
     <use x="68.408203" xlink:href="#DejaVuSans-62"/>
     <use x="131.884766" xlink:href="#DejaVuSans-62"/>
     <use x="195.361328" xlink:href="#DejaVuSans-6f"/>
     <use x="256.542969" xlink:href="#DejaVuSans-74"/>
     <use x="295.751953" xlink:href="#DejaVuSans-74"/>
     <use x="334.960938" xlink:href="#DejaVuSans-20"/>
     <use x="366.748047" xlink:href="#DejaVuSans-61"/>
     <use x="428.027344" xlink:href="#DejaVuSans-6e"/>
     <use x="491.40625" xlink:href="#DejaVuSans-6e"/>
     <use x="554.785156" xlink:href="#DejaVuSans-6f"/>
     <use x="615.966797" xlink:href="#DejaVuSans-75"/>
     <use x="679.345703" xlink:href="#DejaVuSans-6e"/>
     <use x="742.724609" xlink:href="#DejaVuSans-63"/>
     <use x="797.705078" xlink:href="#DejaVuSans-65"/>
     <use x="859.228516" xlink:href="#DejaVuSans-73"/>
    </g>
    <!-- end of SAH order -->
    <defs>
     <path d="M 37.109375 75.984375 
L 37.109375 68.5 
L 28.515625 68.5 
Q 23.6875 68.5 21.796875 66.546875 
Q 19.921875 64.59375 19.921875 59.515625 
L 19.921875 54.6875 
L 34.71875 54.6875 
L 34.71875 47.703125 
L 19.921875 47.703125 
L 19.921875 0 
L 10.890625 0 
L 10.890625 47.703125 
L 2.296875 47.703125 
L 2.296875 54.6875 
L 10.890625 54.6875 
L 10.890625 58.5 
Q 10.890625 67.625 15.140625 71.796875 
Q 19.390625 75.984375 28.609375 75.984375 
z
" id="DejaVuSans-66"/>
     <path d="M 53.515625 70.515625 
L 53.515625 60.890625 
Q 47.90625 63.578125 42.921875 64.890625 
Q 37.9375 66.21875 33.296875 66.21875 
Q 25.25 66.21875 20.875 63.09375 
Q 16.5 59.96875 16.5 54.203125 
Q 16.5 49.359375 19.40625 46.890625 
Q 22.3125 44.4375 30.421875 42.921875 
L 36.375 41.703125 
Q 47.40625 39.59375 52.65625 34.296875 
Q 57.90625 29 57.90625 20.125 
Q 57.90625 9.515625 50.796875 4.046875 
Q 43.703125 -1.421875 29.984375 -1.421875 
Q 24.8125 -1.421875 18.96875 -0.25 
Q 13.140625 0.921875 6.890625 3.21875 
L 6.890625 13.375 
Q 12.890625 10.015625 18.65625 8.296875 
Q 24.421875 6.59375 29.984375 6.59375 
Q 38.421875 6.59375 43.015625 9.90625 
Q 47.609375 13.234375 47.609375 19.390625 
Q 47.609375 24.75 44.3125 27.78125 
Q 41.015625 30.8125 33.5 32.328125 
L 27.484375 33.5 
Q 16.453125 35.6875 11.515625 40.375 
Q 6.59375 45.0625 6.59375 53.421875 
Q 6.59375 63.09375 13.40625 68.65625 
Q 20.21875 74.21875 32.171875 74.21875 
Q 37.3125 74.21875 42.625 73.28125 
Q 47.953125 72.359375 53.515625 70.515625 
z
" id="DejaVuSans-53"/>
    </defs>
    <g style="fill:#1f77b4;" transform="translate(972.787001 190.12)scale(0.12 -0.12)">
     <use xlink:href="#DejaVuSans-65"/>
     <use x="61.523438" xlink:href="#DejaVuSans-6e"/>
     <use x="124.902344" xlink:href="#DejaVuSans-64"/>
     <use x="188.378906" xlink:href="#DejaVuSans-20"/>
     <use x="220.166016" xlink:href="#DejaVuSans-6f"/>
     <use x="281.347656" xlink:href="#DejaVuSans-66"/>
     <use x="316.552734" xlink:href="#DejaVuSans-20"/>
     <use x="348.339844" xlink:href="#DejaVuSans-53"/>
     <use x="411.832031" xlink:href="#DejaVuSans-41"/>
     <use x="480.240234" xlink:href="#DejaVuSans-48"/>
     <use x="555.435547" xlink:href="#DejaVuSans-20"/>
     <use x="587.222656" xlink:href="#DejaVuSans-6f"/>
     <use x="648.404297" xlink:href="#DejaVuSans-72"/>
     <use x="689.501953" xlink:href="#DejaVuSans-64"/>
     <use x="752.978516" xlink:href="#DejaVuSans-65"/>
     <use x="814.501953" xlink:href="#DejaVuSans-72"/>
    </g>
   </g>
   <g id="text_13">
    <!-- First reported -->
    <g style="fill:#ff7f0e;" transform="translate(467.897055 378.442625)scale(0.12 -0.12)">
     <use xlink:href="#DejaVuSans-46"/>
     <use x="57.410156" xlink:href="#DejaVuSans-69"/>
     <use x="85.193359" xlink:href="#DejaVuSans-72"/>
     <use x="126.306641" xlink:href="#DejaVuSans-73"/>
     <use x="178.40625" xlink:href="#DejaVuSans-74"/>
     <use x="217.615234" xlink:href="#DejaVuSans-20"/>
     <use x="249.402344" xlink:href="#DejaVuSans-72"/>
     <use x="290.484375" xlink:href="#DejaVuSans-65"/>
     <use x="352.007812" xlink:href="#DejaVuSans-70"/>
     <use x="415.484375" xlink:href="#DejaVuSans-6f"/>
     <use x="476.666016" xlink:href="#DejaVuSans-72"/>
     <use x="517.779297" xlink:href="#DejaVuSans-74"/>
     <use x="556.988281" xlink:href="#DejaVuSans-65"/>
     <use x="618.511719" xlink:href="#DejaVuSans-64"/>
    </g>
    <!-- case in NYS -->
    <g style="fill:#ff7f0e;" transform="translate(467.897055 391.88)scale(0.12 -0.12)">
     <use xlink:href="#DejaVuSans-63"/>
     <use x="54.980469" xlink:href="#DejaVuSans-61"/>
     <use x="116.259766" xlink:href="#DejaVuSans-73"/>
     <use x="168.359375" xlink:href="#DejaVuSans-65"/>
     <use x="229.882812" xlink:href="#DejaVuSans-20"/>
     <use x="261.669922" xlink:href="#DejaVuSans-69"/>
     <use x="289.453125" xlink:href="#DejaVuSans-6e"/>
     <use x="352.832031" xlink:href="#DejaVuSans-20"/>
     <use x="384.619141" xlink:href="#DejaVuSans-4e"/>
     <use x="459.423828" xlink:href="#DejaVuSans-59"/>
     <use x="520.507812" xlink:href="#DejaVuSans-53"/>
    </g>
   </g>
   <g id="text_14">
    <!-- NYC public schools -->
    <defs>
     <path d="M 64.40625 67.28125 
L 64.40625 56.890625 
Q 59.421875 61.53125 53.78125 63.8125 
Q 48.140625 66.109375 41.796875 66.109375 
Q 29.296875 66.109375 22.65625 58.46875 
Q 16.015625 50.828125 16.015625 36.375 
Q 16.015625 21.96875 22.65625 14.328125 
Q 29.296875 6.6875 41.796875 6.6875 
Q 48.140625 6.6875 53.78125 8.984375 
Q 59.421875 11.28125 64.40625 15.921875 
L 64.40625 5.609375 
Q 59.234375 2.09375 53.4375 0.328125 
Q 47.65625 -1.421875 41.21875 -1.421875 
Q 24.65625 -1.421875 15.125 8.703125 
Q 5.609375 18.84375 5.609375 36.375 
Q 5.609375 53.953125 15.125 64.078125 
Q 24.65625 74.21875 41.21875 74.21875 
Q 47.75 74.21875 53.53125 72.484375 
Q 59.328125 70.75 64.40625 67.28125 
z
" id="DejaVuSans-43"/>
     <path d="M 9.421875 75.984375 
L 18.40625 75.984375 
L 18.40625 0 
L 9.421875 0 
z
" id="DejaVuSans-6c"/>
    </defs>
    <g style="fill:#ff7f0e;" transform="translate(618.289805 353.222625)scale(0.12 -0.12)">
     <use xlink:href="#DejaVuSans-4e"/>
     <use x="74.804688" xlink:href="#DejaVuSans-59"/>
     <use x="135.810547" xlink:href="#DejaVuSans-43"/>
     <use x="205.634766" xlink:href="#DejaVuSans-20"/>
     <use x="237.421875" xlink:href="#DejaVuSans-70"/>
     <use x="300.898438" xlink:href="#DejaVuSans-75"/>
     <use x="364.277344" xlink:href="#DejaVuSans-62"/>
     <use x="427.753906" xlink:href="#DejaVuSans-6c"/>
     <use x="455.537109" xlink:href="#DejaVuSans-69"/>
     <use x="483.320312" xlink:href="#DejaVuSans-63"/>
     <use x="538.300781" xlink:href="#DejaVuSans-20"/>
     <use x="570.087891" xlink:href="#DejaVuSans-73"/>
     <use x="622.1875" xlink:href="#DejaVuSans-63"/>
     <use x="677.167969" xlink:href="#DejaVuSans-68"/>
     <use x="740.546875" xlink:href="#DejaVuSans-6f"/>
     <use x="801.728516" xlink:href="#DejaVuSans-6f"/>
     <use x="862.910156" xlink:href="#DejaVuSans-6c"/>
     <use x="890.693359" xlink:href="#DejaVuSans-73"/>
    </g>
    <!-- ordered to close -->
    <g style="fill:#ff7f0e;" transform="translate(618.289805 366.66)scale(0.12 -0.12)">
     <use xlink:href="#DejaVuSans-6f"/>
     <use x="61.181641" xlink:href="#DejaVuSans-72"/>
     <use x="102.279297" xlink:href="#DejaVuSans-64"/>
     <use x="165.755859" xlink:href="#DejaVuSans-65"/>
     <use x="227.279297" xlink:href="#DejaVuSans-72"/>
     <use x="268.361328" xlink:href="#DejaVuSans-65"/>
     <use x="329.884766" xlink:href="#DejaVuSans-64"/>
     <use x="393.361328" xlink:href="#DejaVuSans-20"/>
     <use x="425.148438" xlink:href="#DejaVuSans-74"/>
     <use x="464.357422" xlink:href="#DejaVuSans-6f"/>
     <use x="525.539062" xlink:href="#DejaVuSans-20"/>
     <use x="557.326172" xlink:href="#DejaVuSans-63"/>
     <use x="612.306641" xlink:href="#DejaVuSans-6c"/>
     <use x="640.089844" xlink:href="#DejaVuSans-6f"/>
     <use x="701.271484" xlink:href="#DejaVuSans-73"/>
     <use x="753.371094" xlink:href="#DejaVuSans-65"/>
    </g>
   </g>
   <g id="text_15">
    <!-- Cuomo issues -->
    <g style="fill:#ff7f0e;" transform="translate(672.001501 403.662625)scale(0.12 -0.12)">
     <use xlink:href="#DejaVuSans-43"/>
     <use x="69.824219" xlink:href="#DejaVuSans-75"/>
     <use x="133.203125" xlink:href="#DejaVuSans-6f"/>
     <use x="194.384766" xlink:href="#DejaVuSans-6d"/>
     <use x="291.796875" xlink:href="#DejaVuSans-6f"/>
     <use x="352.978516" xlink:href="#DejaVuSans-20"/>
     <use x="384.765625" xlink:href="#DejaVuSans-69"/>
     <use x="412.548828" xlink:href="#DejaVuSans-73"/>
     <use x="464.648438" xlink:href="#DejaVuSans-73"/>
     <use x="516.748047" xlink:href="#DejaVuSans-75"/>
     <use x="580.126953" xlink:href="#DejaVuSans-65"/>
     <use x="641.650391" xlink:href="#DejaVuSans-73"/>
    </g>
    <!-- stay-at-home order -->
    <g style="fill:#ff7f0e;" transform="translate(672.001501 417.1)scale(0.12 -0.12)">
     <use xlink:href="#DejaVuSans-73"/>
     <use x="52.099609" xlink:href="#DejaVuSans-74"/>
     <use x="91.308594" xlink:href="#DejaVuSans-61"/>
     <use x="152.587891" xlink:href="#DejaVuSans-79"/>
     <use x="211.751953" xlink:href="#DejaVuSans-2d"/>
     <use x="247.835938" xlink:href="#DejaVuSans-61"/>
     <use x="309.115234" xlink:href="#DejaVuSans-74"/>
     <use x="348.324219" xlink:href="#DejaVuSans-2d"/>
     <use x="384.408203" xlink:href="#DejaVuSans-68"/>
     <use x="447.787109" xlink:href="#DejaVuSans-6f"/>
     <use x="508.96875" xlink:href="#DejaVuSans-6d"/>
     <use x="606.380859" xlink:href="#DejaVuSans-65"/>
     <use x="667.904297" xlink:href="#DejaVuSans-20"/>
     <use x="699.691406" xlink:href="#DejaVuSans-6f"/>
     <use x="760.873047" xlink:href="#DejaVuSans-72"/>
     <use x="801.970703" xlink:href="#DejaVuSans-64"/>
     <use x="865.447266" xlink:href="#DejaVuSans-65"/>
     <use x="926.970703" xlink:href="#DejaVuSans-72"/>
    </g>
   </g>
   <g id="text_16">
    <!-- Sentiment toward governors across cities, 2020 (5-day rolling average) -->
    <defs>
     <path d="M 2.984375 54.6875 
L 12.5 54.6875 
L 29.59375 8.796875 
L 46.6875 54.6875 
L 56.203125 54.6875 
L 35.6875 0 
L 23.484375 0 
z
" id="DejaVuSans-76"/>
     <path d="M 11.71875 12.40625 
L 22.015625 12.40625 
L 22.015625 4 
L 14.015625 -11.625 
L 7.71875 -11.625 
L 11.71875 4 
z
" id="DejaVuSans-2c"/>
     <path d="M 19.1875 8.296875 
L 53.609375 8.296875 
L 53.609375 0 
L 7.328125 0 
L 7.328125 8.296875 
Q 12.9375 14.109375 22.625 23.890625 
Q 32.328125 33.6875 34.8125 36.53125 
Q 39.546875 41.84375 41.421875 45.53125 
Q 43.3125 49.21875 43.3125 52.78125 
Q 43.3125 58.59375 39.234375 62.25 
Q 35.15625 65.921875 28.609375 65.921875 
Q 23.96875 65.921875 18.8125 64.3125 
Q 13.671875 62.703125 7.8125 59.421875 
L 7.8125 69.390625 
Q 13.765625 71.78125 18.9375 73 
Q 24.125 74.21875 28.421875 74.21875 
Q 39.75 74.21875 46.484375 68.546875 
Q 53.21875 62.890625 53.21875 53.421875 
Q 53.21875 48.921875 51.53125 44.890625 
Q 49.859375 40.875 45.40625 35.40625 
Q 44.1875 33.984375 37.640625 27.21875 
Q 31.109375 20.453125 19.1875 8.296875 
z
" id="DejaVuSans-32"/>
     <path d="M 31.78125 66.40625 
Q 24.171875 66.40625 20.328125 58.90625 
Q 16.5 51.421875 16.5 36.375 
Q 16.5 21.390625 20.328125 13.890625 
Q 24.171875 6.390625 31.78125 6.390625 
Q 39.453125 6.390625 43.28125 13.890625 
Q 47.125 21.390625 47.125 36.375 
Q 47.125 51.421875 43.28125 58.90625 
Q 39.453125 66.40625 31.78125 66.40625 
z
M 31.78125 74.21875 
Q 44.046875 74.21875 50.515625 64.515625 
Q 56.984375 54.828125 56.984375 36.375 
Q 56.984375 17.96875 50.515625 8.265625 
Q 44.046875 -1.421875 31.78125 -1.421875 
Q 19.53125 -1.421875 13.0625 8.265625 
Q 6.59375 17.96875 6.59375 36.375 
Q 6.59375 54.828125 13.0625 64.515625 
Q 19.53125 74.21875 31.78125 74.21875 
z
" id="DejaVuSans-30"/>
     <path d="M 31 75.875 
Q 24.46875 64.65625 21.28125 53.65625 
Q 18.109375 42.671875 18.109375 31.390625 
Q 18.109375 20.125 21.3125 9.0625 
Q 24.515625 -2 31 -13.1875 
L 23.1875 -13.1875 
Q 15.875 -1.703125 12.234375 9.375 
Q 8.59375 20.453125 8.59375 31.390625 
Q 8.59375 42.28125 12.203125 53.3125 
Q 15.828125 64.359375 23.1875 75.875 
z
" id="DejaVuSans-28"/>
     <path d="M 10.796875 72.90625 
L 49.515625 72.90625 
L 49.515625 64.59375 
L 19.828125 64.59375 
L 19.828125 46.734375 
Q 21.96875 47.46875 24.109375 47.828125 
Q 26.265625 48.1875 28.421875 48.1875 
Q 40.625 48.1875 47.75 41.5 
Q 54.890625 34.8125 54.890625 23.390625 
Q 54.890625 11.625 47.5625 5.09375 
Q 40.234375 -1.421875 26.90625 -1.421875 
Q 22.3125 -1.421875 17.546875 -0.640625 
Q 12.796875 0.140625 7.71875 1.703125 
L 7.71875 11.625 
Q 12.109375 9.234375 16.796875 8.0625 
Q 21.484375 6.890625 26.703125 6.890625 
Q 35.15625 6.890625 40.078125 11.328125 
Q 45.015625 15.765625 45.015625 23.390625 
Q 45.015625 31 40.078125 35.4375 
Q 35.15625 39.890625 26.703125 39.890625 
Q 22.75 39.890625 18.8125 39.015625 
Q 14.890625 38.140625 10.796875 36.28125 
z
" id="DejaVuSans-35"/>
     <path d="M 8.015625 75.875 
L 15.828125 75.875 
Q 23.140625 64.359375 26.78125 53.3125 
Q 30.421875 42.28125 30.421875 31.390625 
Q 30.421875 20.453125 26.78125 9.375 
Q 23.140625 -1.703125 15.828125 -13.1875 
L 8.015625 -13.1875 
Q 14.5 -2 17.703125 9.0625 
Q 20.90625 20.125 20.90625 31.390625 
Q 20.90625 42.671875 17.703125 53.65625 
Q 14.5 64.65625 8.015625 75.875 
z
" id="DejaVuSans-29"/>
    </defs>
    <g transform="translate(163.264687 32.8)scale(0.28 -0.28)">
     <use xlink:href="#DejaVuSans-53"/>
     <use x="63.476562" xlink:href="#DejaVuSans-65"/>
     <use x="125" xlink:href="#DejaVuSans-6e"/>
     <use x="188.378906" xlink:href="#DejaVuSans-74"/>
     <use x="227.587891" xlink:href="#DejaVuSans-69"/>
     <use x="255.371094" xlink:href="#DejaVuSans-6d"/>
     <use x="352.783203" xlink:href="#DejaVuSans-65"/>
     <use x="414.306641" xlink:href="#DejaVuSans-6e"/>
     <use x="477.685547" xlink:href="#DejaVuSans-74"/>
     <use x="516.894531" xlink:href="#DejaVuSans-20"/>
     <use x="548.681641" xlink:href="#DejaVuSans-74"/>
     <use x="587.890625" xlink:href="#DejaVuSans-6f"/>
     <use x="649.072266" xlink:href="#DejaVuSans-77"/>
     <use x="730.859375" xlink:href="#DejaVuSans-61"/>
     <use x="792.138672" xlink:href="#DejaVuSans-72"/>
     <use x="833.236328" xlink:href="#DejaVuSans-64"/>
     <use x="896.712891" xlink:href="#DejaVuSans-20"/>
     <use x="928.5" xlink:href="#DejaVuSans-67"/>
     <use x="991.976562" xlink:href="#DejaVuSans-6f"/>
     <use x="1053.158203" xlink:href="#DejaVuSans-76"/>
     <use x="1112.337891" xlink:href="#DejaVuSans-65"/>
     <use x="1173.861328" xlink:href="#DejaVuSans-72"/>
     <use x="1214.958984" xlink:href="#DejaVuSans-6e"/>
     <use x="1278.337891" xlink:href="#DejaVuSans-6f"/>
     <use x="1339.519531" xlink:href="#DejaVuSans-72"/>
     <use x="1380.632812" xlink:href="#DejaVuSans-73"/>
     <use x="1432.732422" xlink:href="#DejaVuSans-20"/>
     <use x="1464.519531" xlink:href="#DejaVuSans-61"/>
     <use x="1525.798828" xlink:href="#DejaVuSans-63"/>
     <use x="1580.779297" xlink:href="#DejaVuSans-72"/>
     <use x="1621.861328" xlink:href="#DejaVuSans-6f"/>
     <use x="1683.042969" xlink:href="#DejaVuSans-73"/>
     <use x="1735.142578" xlink:href="#DejaVuSans-73"/>
     <use x="1787.242188" xlink:href="#DejaVuSans-20"/>
     <use x="1819.029297" xlink:href="#DejaVuSans-63"/>
     <use x="1874.009766" xlink:href="#DejaVuSans-69"/>
     <use x="1901.792969" xlink:href="#DejaVuSans-74"/>
     <use x="1941.001953" xlink:href="#DejaVuSans-69"/>
     <use x="1968.785156" xlink:href="#DejaVuSans-65"/>
     <use x="2030.308594" xlink:href="#DejaVuSans-73"/>
     <use x="2082.408203" xlink:href="#DejaVuSans-2c"/>
     <use x="2114.195312" xlink:href="#DejaVuSans-20"/>
     <use x="2145.982422" xlink:href="#DejaVuSans-32"/>
     <use x="2209.605469" xlink:href="#DejaVuSans-30"/>
     <use x="2273.228516" xlink:href="#DejaVuSans-32"/>
     <use x="2336.851562" xlink:href="#DejaVuSans-30"/>
     <use x="2400.474609" xlink:href="#DejaVuSans-20"/>
     <use x="2432.261719" xlink:href="#DejaVuSans-28"/>
     <use x="2471.275391" xlink:href="#DejaVuSans-35"/>
     <use x="2534.898438" xlink:href="#DejaVuSans-2d"/>
     <use x="2570.982422" xlink:href="#DejaVuSans-64"/>
     <use x="2634.458984" xlink:href="#DejaVuSans-61"/>
     <use x="2695.738281" xlink:href="#DejaVuSans-79"/>
     <use x="2754.917969" xlink:href="#DejaVuSans-20"/>
     <use x="2786.705078" xlink:href="#DejaVuSans-72"/>
     <use x="2827.787109" xlink:href="#DejaVuSans-6f"/>
     <use x="2888.96875" xlink:href="#DejaVuSans-6c"/>
     <use x="2916.751953" xlink:href="#DejaVuSans-6c"/>
     <use x="2944.535156" xlink:href="#DejaVuSans-69"/>
     <use x="2972.318359" xlink:href="#DejaVuSans-6e"/>
     <use x="3035.697266" xlink:href="#DejaVuSans-67"/>
     <use x="3099.173828" xlink:href="#DejaVuSans-20"/>
     <use x="3130.960938" xlink:href="#DejaVuSans-61"/>
     <use x="3192.240234" xlink:href="#DejaVuSans-76"/>
     <use x="3251.419922" xlink:href="#DejaVuSans-65"/>
     <use x="3312.943359" xlink:href="#DejaVuSans-72"/>
     <use x="3354.056641" xlink:href="#DejaVuSans-61"/>
     <use x="3415.335938" xlink:href="#DejaVuSans-67"/>
     <use x="3478.8125" xlink:href="#DejaVuSans-65"/>
     <use x="3540.335938" xlink:href="#DejaVuSans-29"/>
    </g>
   </g>
  </g>
 </g>
 <defs>
  <clipPath id="pace8e50c63">
   <rect height="504.4" width="1234.65" x="47.05" y="38.8"/>
  </clipPath>
 </defs>
</svg>
