<?xml version="1.0" encoding="utf-8" standalone="no"?>
<!DOCTYPE svg PUBLIC "-//W3C//DTD SVG 1.1//EN"
  "http://www.w3.org/Graphics/SVG/1.1/DTD/svg11.dtd">
<!-- Created with matplotlib (http://matplotlib.org/) -->
<svg height="864pt" version="1.1" viewBox="0 0 288 864" width="288pt" xmlns="http://www.w3.org/2000/svg" xmlns:xlink="http://www.w3.org/1999/xlink">
 <defs>
  <style type="text/css">
*{stroke-linecap:butt;stroke-linejoin:round;}
  </style>
 </defs>
 <g id="figure_1">
  <g id="patch_1">
   <path d="M 0 864 
L 288 864 
L 288 0 
L 0 0 
z
" style="fill:none;"/>
  </g>
  <g id="axes_1">
   <g id="patch_2">
    <path d="M 47.05 849.7 
L 273.7 849.7 
L 273.7 14.3 
L 47.05 14.3 
z
" style="fill:none;"/>
   </g>
   <g id="matplotlib.axis_1"/>
   <g id="matplotlib.axis_2">
    <g id="ytick_1">
     <g id="line2d_1">
      <defs>
       <path d="M 0 0 
L -3.5 0 
" id="m071b922613" style="stroke:#000000;stroke-width:0.8;"/>
      </defs>
      <g>
       <use style="stroke:#000000;stroke-width:0.8;" x="47.05" xlink:href="#m071b922613" y="803.290745"/>
      </g>
     </g>
     <g id="text_1">
      <!-- ☹ -->
      <defs>
       <path d="M 31.34375 49.859375 
Q 31.34375 52.734375 33.3125 54.703125 
Q 35.296875 56.6875 38.1875 56.6875 
Q 41.015625 56.6875 43.015625 54.703125 
Q 45.015625 52.734375 45.015625 49.84375 
Q 45.015625 46.96875 43.015625 44.96875 
Q 41.015625 42.96875 38.1875 42.96875 
Q 35.296875 42.96875 33.3125 44.984375 
Q 31.34375 47.015625 31.34375 49.859375 
z
M 59.578125 49.859375 
Q 59.578125 52.734375 61.578125 54.703125 
Q 63.578125 56.6875 66.40625 56.6875 
Q 69.234375 56.6875 71.265625 54.703125 
Q 73.296875 52.734375 73.296875 49.859375 
Q 73.296875 47.015625 71.265625 44.984375 
Q 69.234375 42.96875 66.40625 42.96875 
Q 63.53125 42.96875 61.546875 44.984375 
Q 59.578125 47.015625 59.578125 49.859375 
z
M 8.296875 36.421875 
Q 8.296875 54.640625 21.140625 67.5 
Q 33.984375 80.375 52.15625 80.375 
Q 70.359375 80.375 83.15625 67.5 
Q 95.953125 54.640625 95.953125 36.421875 
Q 95.953125 18.265625 83.15625 5.46875 
Q 70.359375 -7.328125 52.15625 -7.328125 
Q 33.984375 -7.328125 21.140625 5.46875 
Q 8.296875 18.265625 8.296875 36.421875 
z
M 14.890625 36.421875 
Q 14.890625 21 25.796875 10.125 
Q 36.71875 -0.734375 52.15625 -0.734375 
Q 67.625 -0.734375 78.484375 10.125 
Q 89.359375 21 89.359375 36.421875 
Q 89.359375 51.90625 78.484375 62.84375 
Q 67.625 73.78125 52.15625 73.78125 
Q 36.71875 73.78125 25.796875 62.84375 
Q 14.890625 51.90625 14.890625 36.421875 
z
M 26.421875 16.21875 
Q 28.171875 18.953125 30.671875 21.4375 
Q 39.546875 30.28125 52.140625 30.28125 
Q 64.75 30.28125 73.640625 21.4375 
Q 76.078125 18.953125 77.875 16.21875 
L 72.265625 12.703125 
Q 70.84375 14.84375 68.953125 16.75 
Q 62.015625 23.6875 52.140625 23.6875 
Q 42.28125 23.6875 35.359375 16.796875 
Q 33.40625 14.84375 32.03125 12.75 
z
" id="DejaVuSans-2639"/>
      </defs>
      <g transform="translate(10.86 813.928558)scale(0.28 -0.28)">
       <use xlink:href="#DejaVuSans-2639"/>
      </g>
     </g>
    </g>
    <g id="ytick_2">
     <g id="line2d_2">
      <g>
       <use style="stroke:#000000;stroke-width:0.8;" x="47.05" xlink:href="#m071b922613" y="60.709255"/>
      </g>
     </g>
     <g id="text_2">
      <!-- ☺ -->
      <defs>
       <path d="M 31.34375 49.859375 
Q 31.34375 52.734375 33.3125 54.703125 
Q 35.296875 56.6875 38.1875 56.6875 
Q 41.015625 56.6875 43.015625 54.703125 
Q 45.015625 52.734375 45.015625 49.84375 
Q 45.015625 46.96875 43.015625 44.96875 
Q 41.015625 42.96875 38.1875 42.96875 
Q 35.296875 42.96875 33.3125 44.984375 
Q 31.34375 47.015625 31.34375 49.859375 
z
M 59.578125 49.859375 
Q 59.578125 52.734375 61.578125 54.703125 
Q 63.578125 56.6875 66.40625 56.6875 
Q 69.234375 56.6875 71.265625 54.703125 
Q 73.296875 52.734375 73.296875 49.859375 
Q 73.296875 47.015625 71.265625 44.984375 
Q 69.234375 42.96875 66.40625 42.96875 
Q 63.53125 42.96875 61.546875 44.984375 
Q 59.578125 47.015625 59.578125 49.859375 
z
M 8.296875 36.421875 
Q 8.296875 54.640625 21.140625 67.5 
Q 33.984375 80.375 52.15625 80.375 
Q 70.359375 80.375 83.15625 67.5 
Q 95.953125 54.640625 95.953125 36.421875 
Q 95.953125 18.265625 83.15625 5.46875 
Q 70.359375 -7.328125 52.15625 -7.328125 
Q 33.984375 -7.328125 21.140625 5.46875 
Q 8.296875 18.265625 8.296875 36.421875 
z
M 14.890625 36.421875 
Q 14.890625 21 25.796875 10.125 
Q 36.71875 -0.734375 52.15625 -0.734375 
Q 67.625 -0.734375 78.484375 10.125 
Q 89.359375 21 89.359375 36.421875 
Q 89.359375 51.90625 78.484375 62.84375 
Q 67.625 73.78125 52.15625 73.78125 
Q 36.71875 73.78125 25.796875 62.84375 
Q 14.890625 51.90625 14.890625 36.421875 
z
M 26.421875 22.703125 
L 32.03125 26.171875 
Q 33.40625 24.078125 35.359375 22.171875 
Q 42.28125 15.234375 52.140625 15.234375 
Q 62.015625 15.234375 68.953125 22.171875 
Q 70.84375 24.078125 72.265625 26.21875 
L 77.875 22.703125 
Q 76.078125 19.96875 73.640625 17.484375 
Q 64.75 8.640625 52.140625 8.640625 
Q 39.546875 8.640625 30.671875 17.484375 
Q 28.171875 19.96875 26.421875 22.703125 
z
" id="DejaVuSans-263a"/>
      </defs>
      <g transform="translate(10.86 71.347067)scale(0.28 -0.28)">
       <use xlink:href="#DejaVuSans-263a"/>
      </g>
     </g>
    </g>
   </g>
   <g id="line2d_3">
    <path clip-path="url(#pde1ab1254b)" d="M 47.05 432 
L 273.7 432 
" style="fill:none;stroke:#808080;stroke-linecap:square;stroke-width:1.5;"/>
   </g>
   <g id="patch_3">
    <path d="M 47.05 849.7 
L 47.05 14.3 
" style="fill:none;stroke:#000000;stroke-linecap:square;stroke-linejoin:miter;stroke-width:0.8;"/>
   </g>
   <g id="text_3">
    <!-- okay -->
    <defs>
     <path d="M 30.609375 48.390625 
Q 23.390625 48.390625 19.1875 42.75 
Q 14.984375 37.109375 14.984375 27.296875 
Q 14.984375 17.484375 19.15625 11.84375 
Q 23.34375 6.203125 30.609375 6.203125 
Q 37.796875 6.203125 41.984375 11.859375 
Q 46.1875 17.53125 46.1875 27.296875 
Q 46.1875 37.015625 41.984375 42.703125 
Q 37.796875 48.390625 30.609375 48.390625 
z
M 30.609375 56 
Q 42.328125 56 49.015625 48.375 
Q 55.71875 40.765625 55.71875 27.296875 
Q 55.71875 13.875 49.015625 6.21875 
Q 42.328125 -1.421875 30.609375 -1.421875 
Q 18.84375 -1.421875 12.171875 6.21875 
Q 5.515625 13.875 5.515625 27.296875 
Q 5.515625 40.765625 12.171875 48.375 
Q 18.84375 56 30.609375 56 
z
" id="DejaVuSans-6f"/>
     <path d="M 9.078125 75.984375 
L 18.109375 75.984375 
L 18.109375 31.109375 
L 44.921875 54.6875 
L 56.390625 54.6875 
L 27.390625 29.109375 
L 57.625 0 
L 45.90625 0 
L 18.109375 26.703125 
L 18.109375 0 
L 9.078125 0 
z
" id="DejaVuSans-6b"/>
     <path d="M 34.28125 27.484375 
Q 23.390625 27.484375 19.1875 25 
Q 14.984375 22.515625 14.984375 16.5 
Q 14.984375 11.71875 18.140625 8.90625 
Q 21.296875 6.109375 26.703125 6.109375 
Q 34.1875 6.109375 38.703125 11.40625 
Q 43.21875 16.703125 43.21875 25.484375 
L 43.21875 27.484375 
z
M 52.203125 31.203125 
L 52.203125 0 
L 43.21875 0 
L 43.21875 8.296875 
Q 40.140625 3.328125 35.546875 0.953125 
Q 30.953125 -1.421875 24.3125 -1.421875 
Q 15.921875 -1.421875 10.953125 3.296875 
Q 6 8.015625 6 15.921875 
Q 6 25.140625 12.171875 29.828125 
Q 18.359375 34.515625 30.609375 34.515625 
L 43.21875 34.515625 
L 43.21875 35.40625 
Q 43.21875 41.609375 39.140625 45 
Q 35.0625 48.390625 27.6875 48.390625 
Q 23 48.390625 18.546875 47.265625 
Q 14.109375 46.140625 10.015625 43.890625 
L 10.015625 52.203125 
Q 14.9375 54.109375 19.578125 55.046875 
Q 24.21875 56 28.609375 56 
Q 40.484375 56 46.34375 49.84375 
Q 52.203125 43.703125 52.203125 31.203125 
z
" id="DejaVuSans-61"/>
     <path d="M 32.171875 -5.078125 
Q 28.375 -14.84375 24.75 -17.8125 
Q 21.140625 -20.796875 15.09375 -20.796875 
L 7.90625 -20.796875 
L 7.90625 -13.28125 
L 13.1875 -13.28125 
Q 16.890625 -13.28125 18.9375 -11.515625 
Q 21 -9.765625 23.484375 -3.21875 
L 25.09375 0.875 
L 2.984375 54.6875 
L 12.5 54.6875 
L 29.59375 11.921875 
L 46.6875 54.6875 
L 56.203125 54.6875 
z
" id="DejaVuSans-79"/>
    </defs>
    <g transform="translate(92.38 305.965987)scale(0.16 -0.16)">
     <use xlink:href="#DejaVuSans-6f"/>
     <use x="61.181641" xlink:href="#DejaVuSans-6b"/>
     <use x="119.076172" xlink:href="#DejaVuSans-61"/>
     <use x="180.355469" xlink:href="#DejaVuSans-79"/>
    </g>
   </g>
   <g id="text_4">
    <!-- good -->
    <defs>
     <path d="M 45.40625 27.984375 
Q 45.40625 37.75 41.375 43.109375 
Q 37.359375 48.484375 30.078125 48.484375 
Q 22.859375 48.484375 18.828125 43.109375 
Q 14.796875 37.75 14.796875 27.984375 
Q 14.796875 18.265625 18.828125 12.890625 
Q 22.859375 7.515625 30.078125 7.515625 
Q 37.359375 7.515625 41.375 12.890625 
Q 45.40625 18.265625 45.40625 27.984375 
z
M 54.390625 6.78125 
Q 54.390625 -7.171875 48.1875 -13.984375 
Q 42 -20.796875 29.203125 -20.796875 
Q 24.46875 -20.796875 20.265625 -20.09375 
Q 16.0625 -19.390625 12.109375 -17.921875 
L 12.109375 -9.1875 
Q 16.0625 -11.328125 19.921875 -12.34375 
Q 23.78125 -13.375 27.78125 -13.375 
Q 36.625 -13.375 41.015625 -8.765625 
Q 45.40625 -4.15625 45.40625 5.171875 
L 45.40625 9.625 
Q 42.625 4.78125 38.28125 2.390625 
Q 33.9375 0 27.875 0 
Q 17.828125 0 11.671875 7.65625 
Q 5.515625 15.328125 5.515625 27.984375 
Q 5.515625 40.671875 11.671875 48.328125 
Q 17.828125 56 27.875 56 
Q 33.9375 56 38.28125 53.609375 
Q 42.625 51.21875 45.40625 46.390625 
L 45.40625 54.6875 
L 54.390625 54.6875 
z
" id="DejaVuSans-67"/>
     <path d="M 45.40625 46.390625 
L 45.40625 75.984375 
L 54.390625 75.984375 
L 54.390625 0 
L 45.40625 0 
L 45.40625 8.203125 
Q 42.578125 3.328125 38.25 0.953125 
Q 33.9375 -1.421875 27.875 -1.421875 
Q 17.96875 -1.421875 11.734375 6.484375 
Q 5.515625 14.40625 5.515625 27.296875 
Q 5.515625 40.1875 11.734375 48.09375 
Q 17.96875 56 27.875 56 
Q 33.9375 56 38.25 53.625 
Q 42.578125 51.265625 45.40625 46.390625 
z
M 14.796875 27.296875 
Q 14.796875 17.390625 18.875 11.75 
Q 22.953125 6.109375 30.078125 6.109375 
Q 37.203125 6.109375 41.296875 11.75 
Q 45.40625 17.390625 45.40625 27.296875 
Q 45.40625 37.203125 41.296875 42.84375 
Q 37.203125 48.484375 30.078125 48.484375 
Q 22.953125 48.484375 18.875 42.84375 
Q 14.796875 37.203125 14.796875 27.296875 
z
" id="DejaVuSans-64"/>
    </defs>
    <g transform="translate(92.38 186.72656)scale(0.16 -0.16)">
     <use xlink:href="#DejaVuSans-67"/>
     <use x="63.476562" xlink:href="#DejaVuSans-6f"/>
     <use x="124.658203" xlink:href="#DejaVuSans-6f"/>
     <use x="185.839844" xlink:href="#DejaVuSans-64"/>
    </g>
   </g>
   <g id="text_5">
    <!-- somewhat good -->
    <defs>
     <path d="M 44.28125 53.078125 
L 44.28125 44.578125 
Q 40.484375 46.53125 36.375 47.5 
Q 32.28125 48.484375 27.875 48.484375 
Q 21.1875 48.484375 17.84375 46.4375 
Q 14.5 44.390625 14.5 40.28125 
Q 14.5 37.15625 16.890625 35.375 
Q 19.28125 33.59375 26.515625 31.984375 
L 29.59375 31.296875 
Q 39.15625 29.25 43.1875 25.515625 
Q 47.21875 21.78125 47.21875 15.09375 
Q 47.21875 7.46875 41.1875 3.015625 
Q 35.15625 -1.421875 24.609375 -1.421875 
Q 20.21875 -1.421875 15.453125 -0.5625 
Q 10.6875 0.296875 5.421875 2 
L 5.421875 11.28125 
Q 10.40625 8.6875 15.234375 7.390625 
Q 20.0625 6.109375 24.8125 6.109375 
Q 31.15625 6.109375 34.5625 8.28125 
Q 37.984375 10.453125 37.984375 14.40625 
Q 37.984375 18.0625 35.515625 20.015625 
Q 33.0625 21.96875 24.703125 23.78125 
L 21.578125 24.515625 
Q 13.234375 26.265625 9.515625 29.90625 
Q 5.8125 33.546875 5.8125 39.890625 
Q 5.8125 47.609375 11.28125 51.796875 
Q 16.75 56 26.8125 56 
Q 31.78125 56 36.171875 55.265625 
Q 40.578125 54.546875 44.28125 53.078125 
z
" id="DejaVuSans-73"/>
     <path d="M 52 44.1875 
Q 55.375 50.25 60.0625 53.125 
Q 64.75 56 71.09375 56 
Q 79.640625 56 84.28125 50.015625 
Q 88.921875 44.046875 88.921875 33.015625 
L 88.921875 0 
L 79.890625 0 
L 79.890625 32.71875 
Q 79.890625 40.578125 77.09375 44.375 
Q 74.3125 48.1875 68.609375 48.1875 
Q 61.625 48.1875 57.5625 43.546875 
Q 53.515625 38.921875 53.515625 30.90625 
L 53.515625 0 
L 44.484375 0 
L 44.484375 32.71875 
Q 44.484375 40.625 41.703125 44.40625 
Q 38.921875 48.1875 33.109375 48.1875 
Q 26.21875 48.1875 22.15625 43.53125 
Q 18.109375 38.875 18.109375 30.90625 
L 18.109375 0 
L 9.078125 0 
L 9.078125 54.6875 
L 18.109375 54.6875 
L 18.109375 46.1875 
Q 21.1875 51.21875 25.484375 53.609375 
Q 29.78125 56 35.6875 56 
Q 41.65625 56 45.828125 52.96875 
Q 50 49.953125 52 44.1875 
z
" id="DejaVuSans-6d"/>
     <path d="M 56.203125 29.59375 
L 56.203125 25.203125 
L 14.890625 25.203125 
Q 15.484375 15.921875 20.484375 11.0625 
Q 25.484375 6.203125 34.421875 6.203125 
Q 39.59375 6.203125 44.453125 7.46875 
Q 49.3125 8.734375 54.109375 11.28125 
L 54.109375 2.78125 
Q 49.265625 0.734375 44.1875 -0.34375 
Q 39.109375 -1.421875 33.890625 -1.421875 
Q 20.796875 -1.421875 13.15625 6.1875 
Q 5.515625 13.8125 5.515625 26.8125 
Q 5.515625 40.234375 12.765625 48.109375 
Q 20.015625 56 32.328125 56 
Q 43.359375 56 49.78125 48.890625 
Q 56.203125 41.796875 56.203125 29.59375 
z
M 47.21875 32.234375 
Q 47.125 39.59375 43.09375 43.984375 
Q 39.0625 48.390625 32.421875 48.390625 
Q 24.90625 48.390625 20.390625 44.140625 
Q 15.875 39.890625 15.1875 32.171875 
z
" id="DejaVuSans-65"/>
     <path d="M 4.203125 54.6875 
L 13.1875 54.6875 
L 24.421875 12.015625 
L 35.59375 54.6875 
L 46.1875 54.6875 
L 57.421875 12.015625 
L 68.609375 54.6875 
L 77.59375 54.6875 
L 63.28125 0 
L 52.6875 0 
L 40.921875 44.828125 
L 29.109375 0 
L 18.5 0 
z
" id="DejaVuSans-77"/>
     <path d="M 54.890625 33.015625 
L 54.890625 0 
L 45.90625 0 
L 45.90625 32.71875 
Q 45.90625 40.484375 42.875 44.328125 
Q 39.84375 48.1875 33.796875 48.1875 
Q 26.515625 48.1875 22.3125 43.546875 
Q 18.109375 38.921875 18.109375 30.90625 
L 18.109375 0 
L 9.078125 0 
L 9.078125 75.984375 
L 18.109375 75.984375 
L 18.109375 46.1875 
Q 21.34375 51.125 25.703125 53.5625 
Q 30.078125 56 35.796875 56 
Q 45.21875 56 50.046875 50.171875 
Q 54.890625 44.34375 54.890625 33.015625 
z
" id="DejaVuSans-68"/>
     <path d="M 18.3125 70.21875 
L 18.3125 54.6875 
L 36.8125 54.6875 
L 36.8125 47.703125 
L 18.3125 47.703125 
L 18.3125 18.015625 
Q 18.3125 11.328125 20.140625 9.421875 
Q 21.96875 7.515625 27.59375 7.515625 
L 36.8125 7.515625 
L 36.8125 0 
L 27.59375 0 
Q 17.1875 0 13.234375 3.875 
Q 9.28125 7.765625 9.28125 18.015625 
L 9.28125 47.703125 
L 2.6875 47.703125 
L 2.6875 54.6875 
L 9.28125 54.6875 
L 9.28125 70.21875 
z
" id="DejaVuSans-74"/>
     <path id="DejaVuSans-20"/>
    </defs>
    <g transform="translate(92.38 218.583147)scale(0.16 -0.16)">
     <use xlink:href="#DejaVuSans-73"/>
     <use x="52.099609" xlink:href="#DejaVuSans-6f"/>
     <use x="113.28125" xlink:href="#DejaVuSans-6d"/>
     <use x="210.693359" xlink:href="#DejaVuSans-65"/>
     <use x="272.216797" xlink:href="#DejaVuSans-77"/>
     <use x="354.003906" xlink:href="#DejaVuSans-68"/>
     <use x="417.382812" xlink:href="#DejaVuSans-61"/>
     <use x="478.662109" xlink:href="#DejaVuSans-74"/>
     <use x="517.871094" xlink:href="#DejaVuSans-20"/>
     <use x="549.658203" xlink:href="#DejaVuSans-67"/>
     <use x="613.134766" xlink:href="#DejaVuSans-6f"/>
     <use x="674.316406" xlink:href="#DejaVuSans-6f"/>
     <use x="735.498047" xlink:href="#DejaVuSans-64"/>
    </g>
   </g>
   <g id="text_6">
    <!-- very good -->
    <defs>
     <path d="M 2.984375 54.6875 
L 12.5 54.6875 
L 29.59375 8.796875 
L 46.6875 54.6875 
L 56.203125 54.6875 
L 35.6875 0 
L 23.484375 0 
z
" id="DejaVuSans-76"/>
     <path d="M 41.109375 46.296875 
Q 39.59375 47.171875 37.8125 47.578125 
Q 36.03125 48 33.890625 48 
Q 26.265625 48 22.1875 43.046875 
Q 18.109375 38.09375 18.109375 28.8125 
L 18.109375 0 
L 9.078125 0 
L 9.078125 54.6875 
L 18.109375 54.6875 
L 18.109375 46.1875 
Q 20.953125 51.171875 25.484375 53.578125 
Q 30.03125 56 36.53125 56 
Q 37.453125 56 38.578125 55.875 
Q 39.703125 55.765625 41.0625 55.515625 
z
" id="DejaVuSans-72"/>
    </defs>
    <g transform="translate(92.38 157.598947)scale(0.16 -0.16)">
     <use xlink:href="#DejaVuSans-76"/>
     <use x="59.179688" xlink:href="#DejaVuSans-65"/>
     <use x="120.703125" xlink:href="#DejaVuSans-72"/>
     <use x="161.816406" xlink:href="#DejaVuSans-79"/>
     <use x="220.996094" xlink:href="#DejaVuSans-20"/>
     <use x="252.783203" xlink:href="#DejaVuSans-67"/>
     <use x="316.259766" xlink:href="#DejaVuSans-6f"/>
     <use x="377.441406" xlink:href="#DejaVuSans-6f"/>
     <use x="438.623047" xlink:href="#DejaVuSans-64"/>
    </g>
   </g>
   <g id="text_7">
    <!-- great -->
    <g transform="translate(92.38 83.97236)scale(0.16 -0.16)">
     <use xlink:href="#DejaVuSans-67"/>
     <use x="63.476562" xlink:href="#DejaVuSans-72"/>
     <use x="104.558594" xlink:href="#DejaVuSans-65"/>
     <use x="166.082031" xlink:href="#DejaVuSans-61"/>
     <use x="227.361328" xlink:href="#DejaVuSans-74"/>
    </g>
   </g>
   <g id="text_8">
    <!-- great! -->
    <defs>
     <path d="M 15.09375 12.40625 
L 25 12.40625 
L 25 0 
L 15.09375 0 
z
M 15.09375 72.90625 
L 25 72.90625 
L 25 40.921875 
L 24.03125 23.484375 
L 16.109375 23.484375 
L 15.09375 40.921875 
z
" id="DejaVuSans-21"/>
    </defs>
    <g transform="translate(92.38 65.09232)scale(0.16 -0.16)">
     <use xlink:href="#DejaVuSans-67"/>
     <use x="63.476562" xlink:href="#DejaVuSans-72"/>
     <use x="104.558594" xlink:href="#DejaVuSans-65"/>
     <use x="166.082031" xlink:href="#DejaVuSans-61"/>
     <use x="227.361328" xlink:href="#DejaVuSans-74"/>
     <use x="266.570312" xlink:href="#DejaVuSans-21"/>
    </g>
   </g>
   <g id="text_9">
    <!-- great!! -->
    <g transform="translate(92.38 48.161547)scale(0.16 -0.16)">
     <use xlink:href="#DejaVuSans-67"/>
     <use x="63.476562" xlink:href="#DejaVuSans-72"/>
     <use x="104.558594" xlink:href="#DejaVuSans-65"/>
     <use x="166.082031" xlink:href="#DejaVuSans-61"/>
     <use x="227.361328" xlink:href="#DejaVuSans-74"/>
     <use x="266.570312" xlink:href="#DejaVuSans-21"/>
     <use x="306.658203" xlink:href="#DejaVuSans-21"/>
    </g>
   </g>
   <g id="text_10">
    <!-- not good -->
    <defs>
     <path d="M 54.890625 33.015625 
L 54.890625 0 
L 45.90625 0 
L 45.90625 32.71875 
Q 45.90625 40.484375 42.875 44.328125 
Q 39.84375 48.1875 33.796875 48.1875 
Q 26.515625 48.1875 22.3125 43.546875 
Q 18.109375 38.921875 18.109375 30.90625 
L 18.109375 0 
L 9.078125 0 
L 9.078125 54.6875 
L 18.109375 54.6875 
L 18.109375 46.1875 
Q 21.34375 51.125 25.703125 53.5625 
Q 30.078125 56 35.796875 56 
Q 45.21875 56 50.046875 50.171875 
Q 54.890625 44.34375 54.890625 33.015625 
z
" id="DejaVuSans-6e"/>
    </defs>
    <g transform="translate(92.38 622.025653)scale(0.16 -0.16)">
     <use xlink:href="#DejaVuSans-6e"/>
     <use x="63.378906" xlink:href="#DejaVuSans-6f"/>
     <use x="124.560547" xlink:href="#DejaVuSans-74"/>
     <use x="163.769531" xlink:href="#DejaVuSans-20"/>
     <use x="195.556641" xlink:href="#DejaVuSans-67"/>
     <use x="259.033203" xlink:href="#DejaVuSans-6f"/>
     <use x="320.214844" xlink:href="#DejaVuSans-6f"/>
     <use x="381.396484" xlink:href="#DejaVuSans-64"/>
    </g>
   </g>
   <g id="text_11">
    <!-- bad -->
    <defs>
     <path d="M 48.6875 27.296875 
Q 48.6875 37.203125 44.609375 42.84375 
Q 40.53125 48.484375 33.40625 48.484375 
Q 26.265625 48.484375 22.1875 42.84375 
Q 18.109375 37.203125 18.109375 27.296875 
Q 18.109375 17.390625 22.1875 11.75 
Q 26.265625 6.109375 33.40625 6.109375 
Q 40.53125 6.109375 44.609375 11.75 
Q 48.6875 17.390625 48.6875 27.296875 
z
M 18.109375 46.390625 
Q 20.953125 51.265625 25.265625 53.625 
Q 29.59375 56 35.59375 56 
Q 45.5625 56 51.78125 48.09375 
Q 58.015625 40.1875 58.015625 27.296875 
Q 58.015625 14.40625 51.78125 6.484375 
Q 45.5625 -1.421875 35.59375 -1.421875 
Q 29.59375 -1.421875 25.265625 0.953125 
Q 20.953125 3.328125 18.109375 8.203125 
L 18.109375 0 
L 9.078125 0 
L 9.078125 75.984375 
L 18.109375 75.984375 
z
" id="DejaVuSans-62"/>
    </defs>
    <g transform="translate(92.38 734.024947)scale(0.16 -0.16)">
     <use xlink:href="#DejaVuSans-62"/>
     <use x="63.476562" xlink:href="#DejaVuSans-61"/>
     <use x="124.755859" xlink:href="#DejaVuSans-64"/>
    </g>
   </g>
  </g>
 </g>
 <defs>
  <clipPath id="pde1ab1254b">
   <rect height="835.4" width="226.65" x="47.05" y="14.3"/>
  </clipPath>
 </defs>
</svg>
